Coordinates
version=1
nRows=10
nColumns=28
inDegrees=yes

Units are S.I. units (second, meters, Newtons, ...)
Angles are in degrees.

endheader
time	pelvis_tilt	pelvis_list	pelvis_rotation	pelvis_tx	pelvis_ty	pelvis_tz	hip_flexion_r	hip_adduction_r	hip_rotation_r	knee_angle_r	ankle_angle_r	subtalar_angle_r	mtp_angle_r	hip_flexion_l	hip_adduction_l	hip_rotation_l	knee_angle_l	socket_flexion	socket_adduction	socket_rotation	socket_tx	socket_ty	socket_tz	foot_flex	lumbar_extension	lumbar_bending	lumbar_rotation
      0.30000000	      0.05367554	     -1.16008297	     -5.38405252	     -0.47444792	      1.02459297	      0.29714657	     13.82055704	      1.39659763	     -0.74351839	    -66.37787929	      9.16320256	    -13.80123015	     -5.04652964	      1.79137088	      0.05118658	     -6.71474628	     -0.51771690	      0.02768978	      1.65004037	     15.36583237	      0.00000000	     -0.03270504	      0.00000000	     -2.98019864	     -9.59217009	     -2.29503764	      3.79696221
      0.30416667	      0.10117117	     -1.19337868	     -5.28495801	     -0.46920306	      1.02532544	      0.29702459	     14.36902642	      1.45933267	     -0.78767106	    -66.14757709	      9.25074175	    -13.76522775	     -5.03104948	      1.41056904	      0.04672591	     -6.72124520	     -0.54617500	     -0.07260286	      1.63368673	     15.38316472	      0.00000000	     -0.03226711	      0.00000000	     -2.94986109	     -9.66788792	     -2.26495620	      3.77524289
      0.30833333	      0.17495423	     -1.59850431	     -5.04410311	     -0.46342063	      1.02596161	      0.29649222	     14.71622164	      1.83949118	     -1.07881300	    -65.74896895	     10.12685760	    -12.71281571	     -4.95823266	      0.79971428	     -0.32900993	     -6.67323767	     -0.16969121	      0.05571154	      1.71002445	     15.63453316	      0.00000000	     -0.03256438	      0.00000000	     -2.72484526	     -9.74416434	     -1.66799320	      3.32790071
      0.31250000	      0.22127482	     -1.60919330	     -4.94892749	     -0.45827845	      1.02664910	      0.29640437	     15.26303010	      1.87906273	     -1.12002023	    -65.45698880	     10.20312277	    -12.71376643	     -4.94781584	      0.44094357	     -0.31442218	     -6.68357987	     -0.20881856	     -0.03196755	      1.69584203	     15.63796943	      0.00000000	     -0.03206525	      0.00000000	     -2.70029591	     -9.83883089	     -1.67045946	      3.32000779
      0.31666667	      0.33591114	     -1.98242674	     -4.68061501	     -0.45245803	      1.02730720	      0.29588455	     15.51960025	      2.20740948	     -1.43785902	    -64.93196718	     11.06909058	    -11.99127404	     -4.92036190	     -0.21316065	     -0.66174633	     -6.60611903	      0.17977348	      0.12172291	      1.78690914	     15.87670887	      0.00000000	     -0.03229550	      0.00000000	     -2.41236314	     -9.94713837	     -1.13824983	      2.99064935
      0.32083333	      0.37886517	     -1.99241011	     -4.59262969	     -0.44735442	      1.02785551	      0.29583892	     16.05690008	      2.24305849	     -1.48209679	    -64.58724250	     11.15636953	    -11.98454683	     -4.91146683	     -0.56871491	     -0.65232652	     -6.61263360	      0.14800413	      0.03995964	      1.77151892	     15.88524916	      0.00000000	     -0.03195754	      0.00000000	     -2.38443822	    -10.04513490	     -1.13922446	      2.97933144
      0.32500000	      0.49888605	     -2.37754250	     -4.30539983	     -0.44152724	      1.02853042	      0.29532110	     16.26660245	      2.58706982	     -1.81041775	    -63.94025412	     11.92231481	    -11.33123883	     -4.90615277	     -1.21576879	     -1.02113791	     -6.55732527	      0.52197591	      0.18497446	      1.85297059	     16.13829086	      0.00000000	     -0.03207864	      0.00000000	     -2.10209500	    -10.14425772	     -0.60104339	      2.66840787
      0.32916667	      0.54136999	     -2.38150120	     -4.23313234	     -0.43648542	      1.02895365	      0.29530761	     16.79868438	      2.60611035	     -1.85493929	    -63.55414628	     12.00075071	    -11.32544494	     -4.90138199	     -1.56638899	     -1.00764722	     -6.56308550	      0.49019490	      0.10179262	      1.83668793	     16.14182633	      0.00000000	     -0.03180454	      0.00000000	     -2.07958466	    -10.24614367	     -0.60363913	      2.65634815
      0.33333333	      0.76614901	     -2.78769936	     -3.89924897	     -0.43062429	      1.02980295	      0.29461334	     16.82295496	      2.93229021	     -2.22618729	    -62.73624980	     12.72167812	    -10.64430897	     -5.04478065	     -2.35824926	     -1.38319573	     -6.46754287	      0.98628854	      0.33006066	      1.91721325	     16.35809834	      0.00000000	     -0.03182911	      0.00000000	     -1.83941610	    -10.47609482	     -0.02093757	      2.25884698
      0.33750000	      0.80614578	     -2.78393945	     -3.85005414	     -0.42561340	      1.03011366	      0.29471659	     17.35493989	      2.94128423	     -2.28387182	    -62.32438296	     12.79654488	    -10.65140762	     -5.04252553	     -2.71081535	     -1.37295855	     -6.47220472	      0.95387224	      0.23335516	      1.91335632	     16.35775241	      0.00000000	     -0.03157584	      0.00000000	     -1.81500194	    -10.56931414	     -0.03988380	      2.25029140
